<?xml version="1.0" encoding="utf-8"?>
<svg viewBox="191.429 208.429 642.402 448.073" xmlns="http://www.w3.org/2000/svg">
  <g transform="matrix(0.10000000149011612, 0, 0, -0.10000000149011612, 1.7763568394002505e-15, 1024)" fill="#000000" stroke="none">
    <path d="M4941 8088 c-16 -5 -41 -25 -57 -45 -54 -72 -292 -329 -405 -438&#10;l-114 -110 -6 44 c-11 84 9 81 -488 81 -344 0 -441 -3 -455 -13 -10 -7 -22&#10;-35 -27 -62 -5 -26 -12 -51 -15 -54 -3 -3 -195 -8 -427 -11 -317 -4 -428 -8&#10;-444 -18 -39 -22 -53 -64 -53 -157 l0 -85 -90 0 c-104 0 -140 -13 -170 -63&#10;-17 -28 -20 -51 -20 -168 l0 -135 -54 -23 c-98 -40 -159 -120 -177 -233 -24&#10;-150 56 -304 194 -375 l50 -25 -6 -877 c-5 -831 -5 -879 12 -917 22 -49 79&#10;-98 129 -111 46 -13 2330 -17 2454 -4 134 13 149 40 49 90 -31 16 -81 36 -111&#10;46 -120 38 -214 107 -390 284 -145 145 -173 179 -229 274 -105 180 -176 362&#10;-208 537 -24 135 -25 414 0 530 45 210 163 495 233 561 19 19 65 72 101 119&#10;63 80 69 92 95 194 15 60 30 111 32 113 2 2 55 5 119 6 l115 2 119 61 c117 61&#10;263 112 378 134 97 18 349 24 465 11 151 -16 302 -60 464 -136 l141 -65 107 0&#10;107 0 21 -56 c11 -31 23 -76 27 -99 6 -45 93 -172 194 -283 92 -101 189 -307&#10;243 -516 30 -116 31 -129 31 -326 0 -192 -2 -212 -29 -315 -87 -340 -235 -583&#10;-488 -802 -156 -135 -258 -199 -378 -238 -67 -22 -136 -56 -170 -83 -22 -18&#10;-23 -22 -10 -36 21 -21 774 -30 1555 -19 640 9 607 6 671 75 60 64 57 7 55&#10;968 l-2 886 33 15 c57 28 132 104 163 166 40 81 46 193 15 275 -28 75 -95 149&#10;-161 177 l-51 22 7 122 c5 106 4 126 -12 157 -24 46 -76 80 -123 80 -21 0 -58&#10;3 -84 6 l-46 7 0 82 c0 74 -2 84 -25 105 -18 17 -40 25 -80 28 l-55 4 0 72 c0&#10;50 -5 79 -16 95 -33 46 -57 49 -397 46 -272 -3 -321 -5 -342 -19 -43 -28 -59&#10;-63 -59 -131 0 -62 0 -63 -29 -69 -16 -3 -42 -6 -57 -6 -15 0 -36 -10 -50 -25&#10;-20 -21 -24 -38 -28 -110 l-5 -85 -104 0 c-74 0 -105 4 -107 13 -24 89 -52&#10;162 -76 198 -46 69 -510 596 -562 638 l-29 23 -415 2 c-227 0 -427 -2 -443 -6z&#10;m814 -151 c15 -18 78 -86 141 -152 144 -152 384 -424 384 -435 0 -30 -1792&#10;-31 -1846 -1 -7 3 105 125 268 291 154 157 286 294 294 305 13 20 23 21 373&#10;23 l360 1 26 -32z m1624 -403 c55 -4 104 -10 109 -13 6 -3 13 -20 17 -36 6&#10;-27 5 -28 -6 -10 -7 11 -13 21 -14 23 -5 6 -55 -11 -55 -18 0 -5 10 -12 23&#10;-17 34 -12 -78 -20 -285 -22 l-178 -1 0 44 c0 26 5 46 13 49 21 7 272 8 376 1z&#10;m-3719 -154 c0 -104 -3 -130 -14 -130 -22 0 -26 23 -26 139 0 109 3 121 27&#10;121 10 0 13 -28 13 -130z m398 -6 c-2 -73 -7 -118 -13 -117 -5 2 -14 55 -18&#10;119 -6 91 -5 119 5 125 24 15 29 -8 26 -127z m-498 7 c0 -110 -8 -148 -25&#10;-121 -4 6 -9 62 -12 125 -6 113 -6 115 16 115 20 0 21 -4 21 -119z m200 -7 c0&#10;-114 -2 -125 -17 -122 -16 3 -18 18 -21 126 -2 117 -2 122 18 122 19 0 20 -6&#10;20 -126z m108 21 c3 -111 -2 -145 -22 -145 -18 0 -26 45 -26 150 0 90 4 103&#10;30 98 12 -3 16 -22 18 -103z m92 -21 c0 -114 -2 -125 -17 -122 -16 3 -18 18&#10;-21 126 -2 117 -2 122 18 122 19 0 20 -6 20 -126z m200 0 c0 -96 -3 -125 -12&#10;-122 -9 3 -14 40 -16 126 -2 104 0 122 13 122 13 0 15 -20 15 -126z m99 19&#10;l-2 -98 -10 82 c-9 75 -6 113 8 113 3 0 4 -44 4 -97z m-1361 -58 c2 -2 1 -26&#10;-3 -54 l-7 -49 -81 -7 c-45 -4 -109 -5 -142 -3 l-60 3 -5 48 c-7 58 -4 64 40&#10;70 36 5 252 -2 258 -8z m484 -1 c4 -3 8 -27 8 -54 0 -34 -4 -50 -16 -54 -21&#10;-8 -263 -8 -303 0 -31 6 -31 7 -31 67 l0 60 167 -7 c92 -4 170 -9 175 -12z&#10;m4161 -20 c14 -5 16 -9 6 -20 -8 -10 -8 -14 0 -14 21 0 11 -38 -11 -44 -13 -3&#10;-177 -6 -365 -6 l-343 0 0 38 c0 21 2 41 5 44 7 7 686 9 708 2z m127 -34 c0&#10;-30 -4 -40 -16 -40 -12 0 -14 7 -9 30 6 28 4 30 -22 31 -25 0 -26 1 -8 9 44&#10;19 55 12 55 -30z m-3120 -70 c218 -17 244 -28 84 -34 -54 -2 -136 -8 -181 -12&#10;-80 -7 -83 -6 -83 14 0 34 11 53 29 48 9 -3 77 -10 151 -16z m1760 6 c0 -2 3&#10;-11 6 -20 5 -14 -11 -16 -147 -15 -85 0 -149 3 -142 5 28 12 283 38 283 30z&#10;m-2100 -123 c0 -10 -9 -42 -21 -72 -29 -79 -67 -243 -75 -326 l-7 -72 -101 -7&#10;c-56 -4 -403 -6 -773 -5 l-672 2 -17 45 c-22 59 -117 154 -178 177 l-46 18 0&#10;123 0 123 48 4 c26 2 451 4 945 5 848 2 897 1 897 -15z m3704 -2 c13 -11 16&#10;-36 16 -122 l0 -108 -47 -21 c-87 -38 -149 -103 -177 -184 l-12 -35 -410 -4&#10;c-225 -2 -465 -1 -534 2 l-124 6 -12 70 c-7 39 -31 141 -53 228 -23 87 -41&#10;163 -41 168 0 5 10 8 23 5 12 -2 31 1 42 5 11 5 311 8 667 6 513 -3 650 -6&#10;662 -16z m-5571 -387 c58 -41 108 -115 114 -168 10 -82 -32 -162 -102 -196&#10;-144 -70 -313 57 -291 218 9 70 54 142 101 164 56 26 124 19 178 -18z m5710&#10;24 c92 -28 148 -133 126 -237 -9 -44 -20 -63 -59 -102 -102 -102 -229 -85&#10;-292 40 -35 68 -36 120 -4 186 50 106 126 144 229 113z m-4603 -672 c0 -2 -21&#10;-28 -46 -58 -71 -82 -76 -101 -82 -288 -5 -164 -5 -165 -33 -202 -16 -20 -44&#10;-67 -62 -105 -28 -59 -32 -78 -32 -148 1 -183 115 -294 303 -296 81 -1 82 0&#10;153 46 73 48 107 57 47 12 -90 -67 -129 -82 -213 -81 -85 1 -122 14 -210 74&#10;-69 47 -130 196 -107 258 6 15 13 47 16 71 2 25 27 90 55 145 l50 101 5 145&#10;c6 175 18 235 55 258 14 9 41 29 59 44 31 27 42 33 42 24z m221 -142 c6 -24&#10;14 -44 18 -44 3 0 6 -28 5 -63 0 -79 -2 -87 -14 -87 -6 0 -10 33 -10 78 0 44&#10;-6 100 -14 125 -8 26 -10 44 -5 41 5 -3 14 -25 20 -50z m-147 -71 c3 -21 6&#10;-106 6 -189 0 -191 3 -208 46 -233 33 -20 59 -60 75 -113 11 -40 3 -35 -32 22&#10;-36 59 -44 64 -23 15 38 -92 2 -179 -79 -187 -74 -8 -126 25 -145 92 l-10 35&#10;-1 -33 c-1 -37 27 -98 56 -125 11 -9 46 -21 79 -25 56 -8 57 -9 26 -16 -107&#10;-25 -202 57 -202 174 0 62 18 101 76 160 l43 45 6 175 c8 235 9 240 44 240 25&#10;0 29 -4 35 -37z m166 -189 c0 -8 -4 -14 -10 -14 -5 0 -10 9 -10 21 0 11 5 17&#10;10 14 6 -3 10 -13 10 -21z m10 -98 c0 -3 -4 -8 -10 -11 -5 -3 -10 -1 -10 4 0&#10;6 5 11 10 11 6 0 10 -2 10 -4z m3300 -971 c360 0 661 -1 668 -3 13 -2 16 -58&#10;6 -110 -5 -25 -12 -32 -43 -38 -20 -4 -326 -7 -681 -5 -628 2 -646 3 -688 23&#10;-24 11 -46 27 -49 35 -8 22 96 116 116 106 9 -4 311 -8 671 -8z m-2568 -13&#10;c14 -14 -61 -25 -116 -18 -53 7 -68 -13 -33 -41 13 -10 26 -26 30 -36 4 -11&#10;16 -21 27 -24 24 -6 26 -19 5 -27 -20 -7 -1653 1 -1755 9 -41 4 -85 11 -97 17&#10;-13 6 -37 7 -60 3 -35 -7 -36 -8 -13 -15 l25 -6 -26 -7 c-33 -9 -86 9 -99 33&#10;-11 21 -13 64 -4 97 6 22 11 23 148 25 362 7 1959 -1 1968 -10z m3495 -104&#10;c-3 -7 -5 -2 -5 12 0 14 2 19 5 13 2 -7 2 -19 0 -25z m-1669 -35 c-10 -2 -28&#10;-2 -40 0 -13 2 -5 4 17 4 22 1 32 -1 23 -4z"/>
    <path d="M5625 7569 c4 -101 8 -184 9 -184 0 0 58 1 129 3 l127 4 0 43 0 44&#10;-90 -6 c-86 -6 -90 -5 -90 14 0 22 24 33 73 33 42 0 67 17 67 45 0 28 -2 28&#10;-82 25 l-58 -2 0 30 c0 26 4 30 38 36 20 3 61 6 90 6 l52 0 0 34 0 33 -117 6&#10;c-65 2 -126 8 -137 12 -17 8 -18 1 -11 -176z"/>
    <path d="M4970 7610 c0 -124 -1 -130 -20 -130 -12 0 -34 7 -51 15 -34 18 -64&#10;8 -74 -26 -12 -36 33 -71 97 -77 47 -4 58 -1 86 23 41 35 52 77 52 213 l0 112&#10;-45 0 -45 0 0 -130z"/>
    <path d="M5269 7711 c-68 -43 -92 -88 -87 -162 4 -62 23 -97 69 -131 33 -24&#10;97 -36 137 -26 73 19 143 133 127 206 -15 70 -99 142 -166 142 -22 0 -52 -11&#10;-80 -29z m155 -114 c15 -32 16 -42 6 -68 -37 -89 -160 -65 -160 31 0 90 114&#10;117 154 37z"/>
    <path d="M3305 7290 c3 -5 8 -10 11 -10 2 0 4 5 4 10 0 6 -5 10 -11 10 -5 0&#10;-7 -4 -4 -10z"/>
    <path d="M3340 7296 c0 -2 7 -6 15 -10 8 -3 15 -1 15 4 0 6 -7 10 -15 10 -8 0&#10;-15 -2 -15 -4z"/>
    <path d="M3745 6977 c-78 -44 -107 -145 -65 -227 46 -91 160 -111 240 -43 64&#10;53 78 135 37 208 -47 82 -132 107 -212 62z m122 -79 c36 -34 44 -71 22 -107&#10;-49 -82 -160 -36 -144 60 13 78 67 99 122 47z"/>
    <path d="M3792 6847 c-28 -29 -28 -44 -1 -52 28 -9 79 13 79 34 0 43 -45 53&#10;-78 18z"/>
    <path d="M6590 7021 c0 -20 41 -164 51 -180 11 -18 12 -22 -22 104 -21 79 -29&#10;100 -29 76z"/>
    <path d="M2184 6649 c-51 -25 -70 -118 -37 -186 33 -71 127 -95 194 -50 83 56&#10;64 183 -34 228 -46 20 -90 23 -123 8z"/>
    <path d="M7909 6621 c-44 -47 -54 -84 -39 -140 28 -104 161 -117 226 -22 59&#10;87 0 201 -104 201 -40 0 -50 -5 -83 -39z"/>
    <path d="M5185 7163 c-129 -16 -327 -79 -487 -156 -212 -102 -415 -292 -548&#10;-512 -122 -201 -194 -472 -193 -725 0 -377 152 -744 417 -1005 125 -124 252&#10;-212 398 -274 253 -109 386 -136 633 -128 243 8 347 33 563 139 286 139 467&#10;303 620 558 78 130 119 235 159 402 34 142 37 164 37 313 1 183 -12 260 -74&#10;448 -73 218 -169 368 -345 540 -113 111 -192 168 -327 237 -147 76 -321 134&#10;-459 154 -96 14 -313 19 -394 9z m430 -167 c112 -25 193 -54 305 -108 251&#10;-121 454 -308 564 -518 47 -89 113 -286 131 -388 16 -91 21 -287 10 -367 -15&#10;-101 -66 -267 -110 -354 -25 -49 -45 -92 -45 -96 0 -25 -153 -216 -244 -305&#10;-87 -85 -154 -130 -301 -201 -218 -107 -415 -149 -635 -135 -317 19 -557 129&#10;-826 379 -135 126 -272 361 -325 561 -74 273 -40 618 85 866 71 140 114 200&#10;225 311 108 108 206 181 321 239 84 43 276 105 370 120 41 6 82 13 90 15 37 9&#10;322 -5 385 -19z"/>
    <path d="M5241 6900 c-105 -15 -197 -38 -305 -78 -231 -86 -376 -198 -529&#10;-414 -94 -132 -177 -348 -196 -509 -24 -197 30 -454 138 -667 26 -50 132 -193&#10;190 -255 132 -141 380 -271 598 -313 118 -23 321 -23 431 0 228 48 416 140&#10;573 281 38 34 148 158 197 222 79 102 160 324 181 495 14 120 -7 327 -47 463&#10;-15 51 -88 196 -132 265 -64 98 -240 266 -351 336 -216 134 -523 205 -748 174z&#10;m249 -392 c36 -6 72 -15 80 -20 11 -7 7 -8 -15 -5 -16 2 -41 0 -55 -4 -22 -8&#10;-21 -8 7 -4 18 2 35 0 38 -5 10 -16 -9 -17 -90 -8 -97 11 -241 -3 -323 -32&#10;-31 -11 -87 -38 -124 -59 -61 -35 -68 -37 -73 -21 -12 37 60 92 163 125 130&#10;42 265 53 392 33z m-570 -153 c0 -8 -7 -15 -16 -15 -14 0 -14 3 -4 15 7 8 14&#10;15 16 15 2 0 4 -7 4 -15z m514 -67 c39 -35 43 -72 12 -102 -38 -39 -96 -36&#10;-130 5 -33 39 -33 54 3 90 36 36 79 38 115 7z m525 -51 c38 -44 81 -115 81&#10;-133 0 -15 -36 32 -59 76 -12 25 -39 62 -59 84 -21 21 -30 35 -21 30 9 -5 35&#10;-31 58 -57z m-1096 20 c-3 -4 -6 -7 -7 -5 -1 2 -8 12 -16 22 -14 18 -14 18 7&#10;6 12 -8 19 -18 16 -23z m-57 -66 c-4 -6 -14 -7 -23 -4 -15 6 -14 7 3 13 22 9&#10;29 6 20 -9z m341 -1 c50 -30 66 -62 61 -121 -4 -37 -12 -58 -34 -80 -67 -71&#10;-137 -79 -202 -23 -38 32 -42 40 -42 82 1 54 13 79 56 116 60 49 110 58 161&#10;26z m-357 -14 c0 -10 -69 -149 -70 -139 0 6 -9 9 -21 6 -18 -5 -20 -3 -11 13&#10;6 10 16 34 23 52 8 22 15 29 19 21 6 -8 13 -2 24 20 9 17 21 31 26 31 6 0 10&#10;-2 10 -4z m1267 -128 c-3 -8 -6 -5 -6 6 -1 11 2 17 5 13 3 -3 4 -12 1 -19z&#10;m-1351 -50 c4 4 3 0 -3 -8 -6 -8 -13 -24 -15 -35 -3 -13 -6 -7 -9 17 -4 27 -2&#10;34 6 28 7 -6 16 -6 21 -2z m619 -94 c39 -42 37 -87 -6 -126 -39 -37 -64 -35&#10;-105 6 -43 43 -44 77 -5 117 38 38 83 39 116 3z m-370 -67 c18 -15 28 -36 32&#10;-63 5 -37 2 -46 -29 -80 -34 -36 -36 -37 -67 -24 -71 29 -92 103 -45 159 31&#10;38 72 41 109 8z m-245 -279 c12 -35 36 -87 52 -115 16 -29 25 -53 20 -53 -5 0&#10;-14 10 -21 23 -7 13 -20 28 -31 34 -15 10 -17 9 -13 -10 4 -20 3 -20 -7 -4 -6&#10;10 -9 25 -6 33 3 8 2 13 -3 10 -10 -6 -51 87 -51 115 0 9 8 20 18 22 9 3 18 5&#10;18 6 1 0 11 -27 24 -61z m1292 -147 c7 10 8 4 3 -16 -8 -39 -49 -98 -89 -129&#10;-17 -13 -42 -34 -56 -46 l-25 -22 -6 24 c-7 27 18 61 38 53 8 -3 11 0 8 6 -8&#10;12 22 38 45 39 36 2 94 80 59 80 -5 0 -7 5 -3 12 6 9 9 9 12 -1 4 -11 6 -11&#10;14 0z m-362 -320 c0 -12 -124 -45 -141 -38 -10 4 -9 6 3 6 10 1 15 7 12 14 -3&#10;10 3 13 25 9 16 -2 37 1 48 7 22 13 53 14 53 2z m-455 -31 l20 -9 -20 0 c-11&#10;0 -27 4 -35 9 -13 9 -13 10 0 9 8 0 24 -4 35 -9z m52 -16 c-3 -3 -12 -4 -19&#10;-1 -8 3 -5 6 6 6 11 1 17 -2 13 -5z"/>
    <path d="M6005 6036 c-3 -5 -2 -10 4 -10 5 0 13 5 16 10 3 6 2 10 -4 10 -5 0&#10;-13 -4 -16 -10z"/>
    <path d="M2870 3972 l0 -236 50 0 49 0 3 76 3 76 47 4 c169 13 226 190 94 288&#10;-22 17 -46 21 -137 24 l-109 4 0 -236z m194 118 c41 -40 5 -104 -59 -104 l-30&#10;0 3 60 4 60 33 0 c19 0 41 -7 49 -16z"/>
    <path d="M3250 3972 l0 -234 46 -4 c25 -2 47 -1 50 1 2 2 4 46 4 98 l0 93 75&#10;0 75 0 0 -95 0 -95 50 0 50 0 0 235 0 235 -50 0 -50 0 0 -89 c0 -50 -4 -92 -9&#10;-95 -4 -3 -38 -3 -75 1 l-66 6 0 88 0 89 -50 0 -50 0 0 -234z"/>
    <path d="M3853 4181 c-119 -60 -166 -211 -104 -332 81 -161 320 -163 403 -4&#10;22 42 28 67 28 117 0 106 -44 178 -135 220 -67 32 -127 31 -192 -1z m168 -101&#10;c17 -8 37 -30 45 -49 41 -99 -15 -205 -108 -205 -105 0 -165 95 -124 195 28&#10;66 119 95 187 59z"/>
    <path d="M4234 4192 c-3 -7 -4 -35 -2 -62 l3 -49 73 -3 72 -3 0 -169 0 -170&#10;50 0 50 0 0 170 0 169 78 3 77 3 3 63 3 62 -201 0 c-161 0 -202 -3 -206 -14z"/>
    <path d="M4812 4180 c-118 -59 -165 -211 -102 -333 34 -68 122 -121 201 -121&#10;137 0 232 95 231 233 0 81 -24 138 -78 185 -75 67 -165 80 -252 36z m193 -114&#10;c88 -83 26 -240 -95 -240 -131 0 -179 181 -67 251 44 28 127 22 162 -11z"/>
    <path d="M5352 4180 c-85 -42 -131 -119 -132 -222 0 -100 72 -198 165 -221&#10;161 -40 286 45 297 204 l3 40 -124 3 c-110 2 -123 1 -117 -14 3 -8 6 -29 6&#10;-45 l0 -29 65 0 c63 0 65 -1 55 -20 -29 -54 -120 -70 -181 -32 -46 28 -69 70&#10;-69 126 0 36 6 52 31 81 52 59 132 68 207 23 l34 -21 31 31 31 31 -24 26 c-65&#10;69 -185 86 -278 39z"/>
    <path d="M5770 3972 l0 -236 50 0 49 0 3 85 3 86 65 -85 65 -86 114 3 115 2 8&#10;33 9 32 78 0 78 0 9 -32 c9 -32 12 -33 67 -36 31 -2 57 -2 57 0 0 2 -36 107&#10;-79 233 l-79 230 -50 3 c-50 3 -50 3 -62 -35 -51 -160 -144 -423 -149 -423 -3&#10;0 -32 37 -64 81 l-58 80 30 28 c79 74 65 190 -29 245 -26 16 -57 21 -132 24&#10;l-98 4 0 -236z m188 118 c26 -18 28 -50 6 -82 -12 -18 -24 -22 -52 -20 l-37 3&#10;-3 58 -3 57 33 0 c19 0 44 -7 56 -16z m399 -119 c9 -27 18 -56 21 -62 3 -9&#10;-10 -13 -48 -13 -38 0 -51 4 -48 13 3 6 13 37 22 67 27 85 28 88 33 65 2 -11&#10;11 -42 20 -70z"/>
    <path d="M6570 4055 c0 -85 -3 -191 -7 -236 l-6 -83 52 0 51 0 0 73 0 73 66&#10;11 c44 8 75 19 91 35 78 73 70 185 -20 252 -22 16 -46 21 -127 24 l-100 4 0&#10;-153z m180 23 c34 -42 5 -92 -52 -92 -28 0 -28 1 -28 63 l0 64 30 -5 c17 -2&#10;39 -16 50 -30z"/>
    <path d="M6910 4002 c0 -112 -3 -218 -6 -235 l-6 -31 56 0 56 0 0 95 0 95 70&#10;0 70 0 0 -95 0 -95 50 0 50 0 0 235 0 235 -50 0 -50 0 0 -90 0 -90 -70 0 -70&#10;0 0 90 0 90 -50 0 -50 0 0 -204z"/>
    <path d="M7270 4200 c0 -4 38 -64 85 -133 l85 -127 0 -102 0 -102 50 0 50 0 0&#10;96 0 95 75 129 c41 71 75 133 75 139 0 6 -21 11 -50 11 -47 0 -51 -2 -75 -40&#10;-14 -22 -35 -60 -47 -85 -12 -25 -24 -45 -27 -45 -4 0 -28 39 -56 85 l-49 85&#10;-58 0 c-32 0 -58 -3 -58 -6z"/>
  </g>
</svg>